<svg version="1.0" xmlns="http://www.w3.org/2000/svg"
 width="430.000000pt" height="580.000000pt" viewBox="0 0 430.000000 580.000000"
 preserveAspectRatio="xMidYMid meet">

<g transform="translate(0.000000,580.000000) scale(0.100000,-0.100000)"
fill="#000000" stroke="none">
<path d="M1977 5043 c-4 -3 1 -12 11 -20 15 -13 15 -14 -8 -8 -14 3 -33 9 -43
12 -12 4 -17 1 -15 -8 2 -8 -2 -13 -9 -12 -48 10 -183 -5 -183 -19 0 -6 -7 -7
-16 -4 -9 3 -12 2 -8 -5 3 -6 -1 -10 -12 -9 -11 1 -24 2 -29 1 -16 -2 -109
-81 -95 -81 7 0 6 -5 -4 -15 -18 -18 -30 -20 -20 -3 12 18 -49 -27 -109 -82
-68 -62 -122 -165 -143 -275 -11 -59 -16 -153 -17 -350 -1 -148 0 -277 3 -285
4 -10 -3 -14 -22 -15 -50 -2 -53 -12 -51 -203 1 -189 7 -221 57 -301 32 -50
61 -69 116 -79 l43 -7 24 -95 c13 -52 30 -134 39 -182 19 -102 13 -120 -41
-116 -39 2 -90 -34 -90 -65 0 -18 -7 -23 -33 -25 -27 -3 -32 -7 -27 -23 5 -15
1 -19 -20 -19 -22 0 -26 4 -22 20 5 19 3 19 -30 5 -95 -40 -219 -162 -266
-262 -27 -59 -32 -83 -38 -183 -4 -63 -8 -118 -8 -122 -1 -5 -8 -8 -17 -8 -11
0 -15 -6 -11 -20 3 -13 0 -20 -9 -20 -8 0 -14 5 -14 11 0 5 -5 7 -10 4 -20
-12 -9 -23 30 -29 22 -3 40 -11 40 -17 0 -7 -7 -8 -17 -4 -39 15 -73 14 -82
-3 -6 -10 -11 -12 -11 -4 0 14 -50 17 -50 2 0 -5 -10 -10 -21 -10 -18 0 -19 2
-9 15 10 12 10 15 -4 15 -9 0 -16 -4 -16 -8 0 -5 -10 -14 -22 -20 -21 -9 -18
-11 20 -11 49 -1 58 -21 10 -21 -23 0 -29 -3 -19 -9 8 -5 21 -7 30 -4 10 3 12
2 6 -4 -6 -4 -11 -25 -11 -45 -1 -32 1 -36 14 -26 22 19 59 20 89 4 l28 -15
-35 6 c-37 6 -33 -10 5 -21 11 -3 3 -4 -18 -3 -40 3 -47 -15 -9 -21 12 -2 22
-8 22 -13 0 -6 10 -8 23 -5 12 3 16 3 9 0 -6 -3 -10 -9 -7 -14 3 -5 -4 -11
-15 -15 -11 -3 -20 -13 -20 -20 0 -15 -38 -55 -52 -55 -4 0 -8 7 -8 15 0 17
-18 19 -40 5 -13 -8 -13 -10 1 -10 9 0 19 -7 23 -15 6 -18 37 -20 54 -3 9 9
18 8 39 -2 16 -7 31 -13 36 -12 4 1 7 -5 7 -13 0 -10 -14 -17 -40 -21 -22 -4
-40 -10 -40 -15 0 -5 -11 -9 -25 -9 -14 0 -25 4 -25 9 0 8 53 25 77 24 9 0 9
4 0 18 -10 16 -14 17 -22 6 -9 -11 -36 -14 -83 -9 -7 1 -11 6 -8 11 4 5 -3 7
-15 4 -18 -5 -20 -3 -15 14 6 19 3 20 -39 16 -30 -4 -45 -2 -45 6 0 6 5 10 12
9 6 -2 17 7 23 20 10 19 14 20 18 8 7 -18 63 -22 87 -6 13 8 13 10 -1 10 -9 0
-19 6 -22 14 -3 7 -18 17 -34 21 -37 9 -53 23 -53 46 0 11 -5 19 -12 19 -18 0
-78 50 -78 64 0 8 7 17 16 20 8 3 13 10 9 15 -3 6 10 13 30 17 19 3 39 12 43
19 4 7 16 14 27 17 11 2 21 9 21 16 1 6 2 17 3 22 1 13 48 13 56 0 10 -16 28
-12 21 5 -4 10 1 15 16 15 12 0 18 3 15 7 -10 10 -120 3 -132 -8 -5 -5 -21 -9
-35 -9 -25 0 -26 3 -25 52 0 42 -3 53 -17 56 -11 2 -18 -3 -18 -12 0 -9 5 -16
10 -16 7 0 7 -4 0 -12 -41 -49 -48 -61 -43 -74 3 -9 0 -12 -8 -9 -8 2 -28 -14
-47 -40 -36 -50 -37 -52 -19 -58 6 -2 4 -3 -5 -2 -24 4 -33 -12 -11 -18 14 -4
14 -5 -3 -6 -27 -1 -41 -41 -16 -42 14 0 14 -2 2 -6 -8 -3 -19 -12 -23 -20 -5
-7 -12 -11 -18 -8 -5 4 -9 4 -9 0 0 -3 10 -9 22 -14 20 -7 18 -9 -17 -15 -21
-4 -45 -15 -52 -24 -11 -15 -12 -12 -7 16 5 25 3 32 -10 32 -22 0 -20 17 5 32
22 14 84 137 74 147 -4 3 -25 -14 -46 -39 -56 -62 -59 -67 -59 -86 0 -11 -5
-14 -16 -10 -11 4 -15 2 -11 -7 8 -20 -29 -40 -52 -28 -15 8 -20 5 -30 -15 -6
-14 -9 -29 -6 -34 3 -5 -3 -11 -14 -15 -15 -5 -18 -13 -13 -50 4 -43 -7 -60
-23 -35 -3 6 -17 10 -29 10 -51 0 -29 -75 24 -82 22 -3 25 -7 22 -38 -2 -19
-12 -44 -23 -56 -10 -11 -19 -30 -19 -41 0 -11 -8 -30 -17 -42 -17 -19 -20
-20 -45 -7 l-28 15 0 -60 c0 -48 5 -67 24 -92 14 -18 28 -45 32 -62 l7 -30
-29 29 -29 28 -3 -341 c-2 -293 0 -345 13 -365 14 -21 14 -25 0 -36 -28 -23
-18 -210 12 -210 7 0 13 -6 11 -13 -1 -6 12 -28 30 -47 18 -19 32 -38 32 -42
0 -5 5 -8 11 -8 6 0 27 -14 46 -30 18 -17 39 -30 44 -30 7 0 9 -12 5 -33 -3
-17 -7 -37 -8 -43 -2 -13 -38 -6 -38 7 0 5 -5 8 -11 6 -6 -1 -20 14 -31 33
-10 19 -28 42 -39 52 -10 9 -19 20 -19 25 0 4 -14 24 -30 43 l-30 35 0 -197 0
-198 185 0 c158 0 185 2 185 15 0 8 7 15 15 15 18 0 20 16 3 23 -7 3 -8 6 -2
6 13 1 54 -36 54 -50 0 -6 175 -9 490 -9 453 1 490 2 488 18 -2 9 2 17 7 17 6
0 21 7 34 14 21 12 23 11 18 -3 -19 -48 -93 -46 1383 -46 1373 0 1379 0 1385
20 4 13 -1 30 -14 46 -27 34 -26 48 4 88 14 18 25 38 25 44 0 7 4 12 9 12 15
0 31 94 31 180 0 73 -2 80 -20 80 -11 0 -20 5 -20 10 0 6 9 10 20 10 18 0 20
7 20 75 0 62 -2 74 -13 64 -7 -7 -14 -22 -15 -33 0 -11 -8 -26 -17 -32 -9 -7
-13 -18 -9 -28 4 -12 0 -16 -15 -16 -12 0 -21 -5 -21 -11 0 -6 -7 -4 -15 5
-22 22 -19 26 17 19 23 -5 29 -3 24 6 -5 7 -11 10 -14 7 -7 -8 -32 14 -32 28
0 6 5 4 10 -4 8 -12 10 -9 10 13 0 15 -4 27 -10 27 -13 0 -13 47 0 55 6 4 8
11 5 16 -4 5 -2 9 4 9 5 0 8 9 6 20 -2 11 3 24 12 29 14 7 13 10 -6 21 -21 11
-22 10 -17 -21 4 -24 2 -29 -7 -20 -12 12 -18 151 -6 151 3 0 5 12 3 27 -1 15
2 34 8 41 9 10 9 15 1 20 -6 4 -9 22 -6 42 2 19 6 44 7 55 1 11 -6 37 -16 57
-13 28 -15 38 -6 38 9 0 8 4 -2 11 -12 9 -11 10 5 4 21 -7 44 -13 59 -14 4 -1
5 -12 2 -26 -4 -14 -3 -25 2 -25 4 0 6 -17 4 -37 -2 -29 -1 -34 7 -23 9 13 11
13 11 -1 0 -9 6 -19 14 -22 12 -5 14 36 14 251 0 192 -2 248 -10 220 -16 -58
-32 -47 -24 16 3 30 9 61 12 70 4 10 -2 17 -20 22 -21 5 -26 12 -26 38 0 17 7
44 15 59 13 25 13 33 1 62 -17 41 -30 49 -46 30 -7 -8 -19 -15 -26 -15 -8 0
-13 -3 -12 -7 4 -20 -44 -123 -54 -117 -5 3 -4 12 3 21 17 19 26 183 10 183
-6 0 -11 10 -11 21 0 16 -5 20 -20 16 -21 -5 -24 2 -20 56 1 15 -3 27 -9 27
-6 0 -11 5 -11 11 0 5 5 7 10 4 6 -3 10 -1 10 4 0 6 -7 11 -16 11 -8 0 -13 4
-9 9 3 6 -2 14 -10 19 -9 5 -17 22 -17 40 -1 18 -5 32 -10 32 -4 0 -8 8 -8 18
0 11 -9 27 -19 36 -15 14 -19 28 -16 61 4 55 26 96 84 158 43 48 44 49 11 26
-19 -13 -52 -39 -72 -58 -21 -19 -41 -32 -45 -28 -4 4 -1 13 5 19 24 24 11 28
-18 6 -16 -12 -30 -27 -30 -34 0 -6 -7 -14 -15 -18 -8 -3 -15 -13 -15 -22 0
-33 -24 -85 -37 -80 -8 3 -11 -4 -8 -25 3 -25 0 -29 -20 -29 -13 0 -32 -11
-43 -25 -11 -14 -24 -25 -30 -25 -8 0 -23 -24 -24 -40 -1 -17 -21 -40 -34 -40
-9 0 -14 -6 -11 -12 2 -7 10 -12 16 -10 6 1 11 -2 11 -8 0 -5 -7 -10 -16 -10
-8 0 -12 -4 -9 -10 3 -5 -1 -10 -9 -10 -9 0 -16 -4 -16 -9 0 -5 -9 -12 -19
-16 -13 -4 -18 -12 -14 -22 4 -10 2 -14 -4 -10 -6 4 -13 -3 -16 -14 -3 -12
-10 -18 -16 -14 -6 3 -9 10 -6 15 3 4 -2 11 -11 14 -13 5 -15 2 -11 -14 4 -15
0 -20 -14 -20 -23 0 -24 -9 -3 -38 14 -21 14 -22 -10 -22 -25 0 -36 -14 -17
-22 4 -1 -1 -12 -12 -23 -11 -11 -17 -14 -13 -7 5 8 -1 12 -18 12 -16 0 -26 6
-26 14 0 8 -7 16 -15 20 -23 8 -18 29 5 23 15 -4 20 0 20 14 0 10 7 19 15 19
8 0 15 7 15 15 0 17 -17 20 -22 4 -2 -7 -9 -5 -17 5 -12 14 -8 16 35 16 49 1
49 1 19 14 -31 13 -27 19 18 30 20 5 27 11 23 21 -3 9 1 15 9 15 22 0 18 16
-7 28 -18 8 -19 11 -5 11 9 1 17 6 17 12 0 5 6 7 13 3 8 -5 8 -2 -2 9 -13 17
-7 22 21 18 4 0 5 6 2 13 -5 12 -9 12 -24 -2 -11 -8 -17 -19 -14 -24 3 -4 -5
-8 -18 -8 -31 0 -50 -13 -45 -31 2 -8 2 -11 -1 -6 -2 4 -13 12 -23 18 -17 9
-20 7 -17 -8 3 -15 -5 -18 -52 -19 -30 -1 -68 -5 -83 -9 -18 -5 -37 -3 -53 6
l-25 13 23 13 c21 11 22 12 3 13 -17 0 -18 2 -5 10 13 9 13 12 -2 24 -22 16
-24 30 -4 23 8 -3 27 -2 43 3 l28 8 -28 1 c-31 1 -57 21 -57 44 0 13 5 13 38
2 20 -7 39 -11 42 -8 3 3 -1 8 -8 10 -7 3 -19 11 -26 19 -19 18 -30 18 -46 -1
-19 -23 -25 -18 -24 17 1 19 -6 38 -15 46 -14 10 -12 11 12 6 36 -8 34 6 -3
31 -16 11 -30 27 -30 35 0 8 -9 29 -20 45 -11 17 -20 35 -20 42 0 7 -17 35
-37 63 -33 44 -38 47 -41 28 -1 -13 -5 -34 -8 -47 -5 -23 -5 -23 -26 -5 -16
15 -36 19 -103 19 -45 0 -88 -5 -96 -11 -8 -6 -22 -14 -31 -17 -16 -6 -16 -2
3 46 43 111 46 115 115 122 49 6 67 4 85 -9 30 -20 36 -20 34 2 -6 60 -71 132
-119 132 -19 0 -46 23 -46 39 0 5 -11 21 -24 34 -14 14 -22 27 -20 30 3 3 -6
23 -20 44 -34 50 -33 84 9 177 8 18 10 39 5 56 -5 16 -4 32 1 37 11 11 1 43
-13 43 -5 0 -6 -4 -3 -10 10 -17 -5 -11 -27 10 -12 11 -30 20 -40 20 -10 0
-18 5 -18 10 0 6 -11 10 -23 10 -13 0 -32 9 -42 20 -10 11 -21 17 -26 14 -9
-5 -28 10 -93 73 -48 46 -105 70 -92 38 19 -50 28 -107 18 -117 -9 -9 -90 9
-152 35 -14 6 -31 11 -37 13 -17 3 -43 30 -43 44 0 6 -4 8 -10 5 -5 -3 -10 2
-11 12 0 11 -3 13 -6 5 -6 -15 -23 -6 -18 11 2 7 6 24 9 40 4 18 13 27 26 27
30 0 54 43 40 70 -6 12 -9 28 -6 35 3 8 1 15 -5 17 -11 4 -20 98 -9 98 4 0 13
15 21 33 7 17 19 36 26 40 7 4 13 17 13 27 0 11 3 20 6 20 11 0 34 -29 34 -44
0 -9 7 -16 16 -16 8 0 13 -4 10 -8 -6 -10 31 -120 46 -139 5 -7 11 -29 13 -50
6 -70 27 -96 39 -48 4 14 11 25 17 25 8 0 8 5 -1 15 -6 8 -10 21 -8 31 3 17 3
17 80 -50 24 -21 137 -16 172 7 15 10 31 15 37 12 12 -8 0 47 -13 56 -17 11
20 30 45 23 14 -3 32 -2 39 2 13 8 17 10 37 13 9 1 18 48 27 141 5 46 2 60
-16 83 -12 15 -27 27 -33 27 -7 0 -28 14 -47 30 -19 16 -40 30 -47 30 -6 0
-34 12 -63 27 -44 23 -66 27 -143 29 -51 1 -94 3 -97 4 -3 1 -8 2 -13 1 -11
-2 -46 36 -39 43 3 3 1 6 -5 6 -20 0 -34 -25 -21 -38 9 -9 9 -15 1 -23 -17
-17 -148 25 -221 70 -13 8 -40 16 -60 18 -41 4 -51 11 -36 21 17 12 11 56 -8
60 -21 4 -26 -33 -5 -41 7 -3 5 -6 -5 -6 -10 -1 -18 5 -18 12 0 16 -47 44 -56
34 -4 -4 -1 -13 6 -21 10 -13 6 -13 -21 1 -42 20 -50 27 -24 21 15 -4 21 0 21
12 0 18 -31 17 -42 -2 -8 -13 -34 11 -34 31 0 12 2 13 9 3 6 -10 10 -8 14 8 4
16 2 20 -9 16 -8 -3 -14 -1 -14 4 0 6 6 10 13 10 20 0 19 40 -1 40 -15 1 -14
3 3 16 12 9 21 11 23 4 2 -5 8 -10 13 -10 6 0 7 5 4 10 -8 14 -3 13 33 -6 18
-8 37 -12 44 -7 7 4 21 6 30 5 11 -2 19 5 23 20 5 19 17 26 58 36 29 7 65 12
80 12 15 0 27 4 27 9 0 5 -19 7 -42 4 -24 -2 -38 -1 -32 4 6 4 13 16 17 26 4
10 12 15 18 12 6 -4 30 0 55 10 24 9 48 14 54 10 6 -4 18 -1 26 6 10 8 18 9
22 3 9 -12 22 -11 50 4 34 19 139 5 157 -21 11 -16 20 -18 48 -13 41 8 67 -1
67 -21 0 -12 8 -14 36 -8 24 4 34 3 29 -4 -3 -6 -2 -11 4 -11 5 0 12 6 15 13
3 8 11 5 25 -11 11 -13 25 -21 31 -17 6 4 10 3 9 -2 -4 -21 2 -33 15 -33 38 0
89 -77 88 -132 0 -16 3 -28 7 -28 9 0 19 -146 24 -355 4 -161 17 -268 28 -240
7 17 8 16 8 -7 1 -47 21 -31 21 17 0 32 -4 45 -14 45 -12 0 -13 12 -9 58 3 31
9 73 14 92 20 72 50 269 61 397 8 98 8 157 0 231 -13 107 -31 162 -81 232 -17
25 -52 76 -77 113 -25 37 -81 105 -124 150 -70 74 -85 85 -147 106 -37 13 -87
34 -110 47 -23 13 -57 24 -75 24 -18 0 -79 5 -136 12 -73 8 -106 9 -110 1 -9
-13 -82 -22 -82 -10 0 4 -5 5 -11 2 -15 -10 -61 4 -54 15 7 11 -38 14 -48 3z
m107 -58 c3 -8 1 -15 -4 -15 -6 0 -10 7 -10 15 0 8 2 15 4 15 2 0 6 -7 10 -15z
m53 -1 c-3 -3 -12 -4 -19 -1 -8 3 -5 6 6 6 11 1 17 -2 13 -5z m-247 -12 c0 -5
-7 -9 -15 -9 -8 0 -15 4 -15 9 0 4 7 8 15 8 8 0 15 -4 15 -8z m137 -8 c-3 -3
-12 -4 -19 -1 -8 3 -5 6 6 6 11 1 17 -2 13 -5z m73 -14 c0 -5 -5 -10 -11 -10
-5 0 -7 5 -4 10 3 6 8 10 11 10 2 0 4 -4 4 -10z m15 -19 c-3 -6 -11 -11 -16
-11 -5 0 -4 6 3 14 14 16 24 13 13 -3z m-287 2 c-10 -2 -26 -2 -35 0 -10 3 -2
5 17 5 19 0 27 -2 18 -5z m212 -3 c0 -5 -5 -10 -11 -10 -5 0 -7 5 -4 10 3 6 8
10 11 10 2 0 4 -4 4 -10z m-393 -6 c-3 -3 -12 -4 -19 -1 -8 3 -5 6 6 6 11 1
17 -2 13 -5z m358 -14 c-3 -5 -23 -9 -43 -9 l-37 1 30 8 c44 11 57 11 50 0z
m-248 -6 c-3 -3 -12 -4 -19 -1 -8 3 -5 6 6 6 11 1 17 -2 13 -5z m128 -34 c-3
-5 -14 -10 -23 -10 -26 0 0 -18 33 -23 l30 -4 -33 -2 c-18 0 -39 5 -46 12 -12
10 -10 14 8 24 26 15 39 16 31 3z m-265 -4 c0 -2 -7 -6 -15 -10 -8 -3 -15 -1
-15 4 0 6 7 10 15 10 8 0 15 -2 15 -4z m107 -2 c-3 -3 -12 -4 -19 -1 -8 3 -5
6 6 6 11 1 17 -2 13 -5z m433 -474 c0 -5 -10 -10 -22 -10 -19 0 -20 2 -8 10
19 13 30 13 30 0z m-75 -60 c3 -5 2 -10 -4 -10 -5 0 -13 5 -16 10 -3 6 -2 10
4 10 5 0 13 -4 16 -10z m-183 -824 c48 -3 78 -30 78 -69 0 -30 0 -30 -20 -12
-20 18 -21 18 -14 1 5 -12 1 -22 -10 -28 -9 -5 -14 -13 -11 -18 3 -4 -10 -8
-29 -8 -19 0 -44 -3 -56 -7 -16 -5 -23 -2 -27 14 -3 11 -9 18 -14 15 -5 -3 -9
0 -9 5 0 6 -9 11 -21 11 -11 0 -18 4 -15 9 3 4 -3 16 -14 26 -13 12 -17 22
-11 29 5 6 9 15 9 21 1 16 34 23 82 19 25 -3 62 -6 82 -8z m422 -631 c-7 -17
-69 -21 -79 -6 -6 11 16 18 57 20 20 1 26 -3 22 -14z m396 -165 c0 -5 13 -24
29 -43 29 -32 29 -34 11 -49 -22 -20 -61 -41 -65 -36 -7 7 8 138 16 138 5 0 9
-4 9 -10z m-1476 -25 c3 -8 3 -22 0 -30 -4 -8 -2 -15 4 -15 14 0 102 -86 102
-100 0 -6 -12 -5 -30 5 -38 20 -43 19 -35 -6 6 -19 4 -20 -17 -12 -12 4 -44 8
-70 8 -27 0 -48 2 -48 5 1 18 30 91 49 123 25 40 36 45 45 22z m21 -175 c3 -5
-1 -10 -9 -10 -8 0 -18 5 -21 10 -3 6 1 10 9 10 8 0 18 -4 21 -10z m-5 -66 c0
-17 -22 -14 -28 4 -2 7 3 12 12 12 9 0 16 -7 16 -16z m11 -35 c24 -12 68 -41
97 -66 46 -40 52 -49 52 -83 0 -39 -13 -59 -25 -40 -10 16 -54 32 -105 39 -42
6 -47 9 -72 60 -15 29 -32 59 -38 67 -9 10 -6 15 14 20 14 3 26 10 26 15 0 12
0 12 51 -12z m1727 -125 c21 -14 33 -72 12 -59 -5 3 -12 -7 -16 -22 -13 -54
-28 -62 -86 -46 -29 7 -66 13 -83 13 -23 0 -35 7 -44 24 -27 50 11 87 99 97
89 10 95 10 118 -7z m944 -21 c-18 -4 -21 -8 -12 -18 8 -10 6 -16 -8 -27 -10
-7 -26 -24 -36 -38 l-18 -25 7 30 c5 17 9 41 11 55 1 14 3 26 3 28 1 1 18 1
39 1 24 -1 29 -3 14 -6z m-1446 -60 c-8 -8 -92 -32 -115 -33 -25 0 8 28 37 33
48 7 86 7 78 0z m1404 -133 c-12 -16 -27 -30 -33 -30 -8 0 -7 -4 2 -9 12 -8
11 -15 -6 -43 -11 -19 -26 -51 -32 -71 -7 -20 -17 -37 -23 -37 -7 0 -6 5 2 15
6 8 9 19 5 25 -8 13 -56 2 -71 -16 -6 -7 -20 -11 -32 -7 -25 6 -42 -21 -23
-40 6 -6 11 -17 11 -24 0 -38 55 -57 89 -30 7 6 -2 -17 -20 -51 -18 -35 -37
-61 -43 -59 -50 19 -56 18 -68 -8 -10 -22 -9 -28 3 -36 8 -5 22 -7 32 -5 9 2
17 2 17 0 0 -9 -54 -100 -64 -106 -6 -4 -11 -13 -11 -20 0 -18 -36 -90 -42
-84 -3 2 0 14 7 25 6 12 8 26 5 31 -4 6 0 13 8 16 7 2 14 11 14 19 0 22 -14
18 -20 -5 -6 -23 -27 -27 -27 -6 0 25 12 46 26 46 8 0 14 5 14 10 0 26 -34 5
-56 -35 -6 -11 -26 -28 -45 -37 -42 -21 -65 -23 -27 -2 29 15 48 42 48 68 0 9
9 25 19 35 12 12 17 27 14 39 -3 11 0 29 7 39 10 16 10 16 5 -3 -4 -16 0 -23
15 -27 17 -4 20 0 20 25 0 16 -4 37 -9 46 -13 25 13 82 38 82 18 0 19 2 5 30
-9 17 -20 30 -25 30 -6 0 11 18 36 40 25 22 55 40 66 40 14 0 19 7 19 24 0 14
-4 28 -10 31 -5 3 -10 16 -10 29 0 16 12 29 43 46 l42 23 -25 -27 -24 -27 44
7 c25 4 59 18 75 30 39 31 41 30 15 -6z m-3115 0 c-3 -5 -12 -10 -18 -10 -7 0
-6 4 3 10 19 12 23 12 15 0z m148 3 c-7 -2 -19 -2 -25 0 -7 3 -2 5 12 5 14 0
19 -2 13 -5z m1452 -36 c6 -5 3 -7 -7 -4 -14 5 -29 -11 -32 -35 -1 -3 -5 -10
-10 -15 -12 -11 3 49 16 65 6 7 14 9 17 5 3 -4 11 -12 16 -16z m825 13 c0 -5
-2 -10 -4 -10 -3 0 -8 5 -11 10 -3 6 -1 10 4 10 6 0 11 -4 11 -10z m-2430 -20
c0 -5 -7 -10 -15 -10 -8 0 -15 5 -15 10 0 6 7 10 15 10 8 0 15 -4 15 -10z
m585 -17 c45 -22 46 -37 0 -17 -19 7 -45 14 -57 14 -19 0 -20 2 -8 10 20 13
24 13 65 -7z m-805 -33 c0 -5 -5 -10 -11 -10 -5 0 -7 5 -4 10 3 6 8 10 11 10
2 0 4 -4 4 -10z m40 -14 c0 -3 -4 -8 -10 -11 -5 -3 -10 -1 -10 4 0 6 5 11 10
11 6 0 10 -2 10 -4z m2604 -11 c-4 -8 -8 -15 -10 -15 -2 0 -4 7 -4 15 0 8 4
15 10 15 5 0 7 -7 4 -15z m301 -4 c-3 -6 -11 -11 -17 -11 -6 0 -6 6 2 15 14
17 26 13 15 -4z m-42 0 c4 -1 7 -6 7 -12 0 -6 -9 -8 -21 -4 -24 8 -46 -15 -26
-27 7 -4 8 -8 2 -8 -5 0 -17 5 -25 10 -12 8 -13 11 -1 19 22 14 -2 20 -28 6
-23 -12 -23 -13 -5 -23 10 -6 16 -14 12 -17 -7 -7 -57 25 -58 37 0 17 79 28
143 19z m-160 -15 c8 -21 -3 -27 -26 -15 -16 9 -17 13 -6 20 19 12 26 11 32
-5z m-3063 -6 c0 -5 -2 -10 -4 -10 -3 0 -8 5 -11 10 -3 6 -1 10 4 10 6 0 11
-4 11 -10z m365 0 c8 -13 -25 -13 -45 0 -12 8 -9 10 12 10 15 0 30 -4 33 -10z
m2330 0 c3 -5 1 -10 -4 -10 -6 0 -11 5 -11 10 0 6 2 10 4 10 3 0 8 -4 11 -10z
m295 0 c0 -5 -2 -10 -4 -10 -3 0 -8 5 -11 10 -3 6 -1 10 4 10 6 0 11 -4 11
-10z m-802 -50 c35 0 20 -14 -53 -49 -43 -20 -81 -31 -110 -31 -24 0 -66 -5
-92 -10 -35 -8 -73 -7 -141 4 -113 17 -134 29 -31 19 75 -8 156 -8 218 0 26 3
39 11 51 34 23 44 47 66 53 50 4 -7 6 -6 6 4 1 15 5 15 38 -2 21 -10 48 -19
61 -19z m-1048 21 c0 -6 -4 -13 -10 -16 -5 -3 -10 1 -10 9 0 9 5 16 10 16 6 0
10 -4 10 -9z m1958 -19 c2 -7 -3 -12 -12 -12 -9 0 -16 7 -16 16 0 17 22 14 28
-4z m-403 -2 c3 -5 2 -10 -4 -10 -5 0 -13 5 -16 10 -3 6 -2 10 4 10 5 0 13 -4
16 -10z m270 -10 c3 -5 1 -10 -4 -10 -6 0 -11 5 -11 10 0 6 2 10 4 10 3 0 8
-4 11 -10z m185 0 c0 -5 -4 -10 -9 -10 -6 0 -13 5 -16 10 -3 6 1 10 9 10 9 0
16 -4 16 -10z m-2541 -26 c10 -23 10 -26 -4 -20 -9 3 -19 6 -21 6 -2 0 -4 9
-4 20 0 28 15 25 29 -6z m506 16 c3 -5 2 -10 -4 -10 -5 0 -13 5 -16 10 -3 6
-2 10 4 10 5 0 13 -4 16 -10z m2737 -33 c-2 -12 -9 -27 -13 -33 -5 -6 -6 -13
-3 -17 3 -3 3 -24 -1 -47 -9 -56 -19 -42 -17 23 4 77 11 107 27 101 7 -3 11
-14 7 -27z m-667 14 c3 -5 1 -12 -5 -16 -5 -3 -10 1 -10 9 0 18 6 21 15 7z
m-500 -11 c3 -5 1 -10 -4 -10 -6 0 -11 5 -11 10 0 6 2 10 4 10 3 0 8 -4 11
-10z m625 0 c0 -5 -2 -10 -4 -10 -3 0 -8 5 -11 10 -3 6 -1 10 4 10 6 0 11 -4
11 -10z m-212 -18 c2 -7 -2 -10 -12 -6 -9 3 -16 11 -16 16 0 13 23 5 28 -10z
m-1968 -2 c0 -5 -2 -10 -4 -10 -3 0 -8 5 -11 10 -3 6 -1 10 4 10 6 0 11 -4 11
-10z m40 -10 c0 -5 -4 -10 -10 -10 -5 0 -10 5 -10 10 0 6 5 10 10 10 6 0 10
-4 10 -10z m-797 -7 c-7 -2 -19 -2 -25 0 -7 3 -2 5 12 5 14 0 19 -2 13 -5z
m47 -21 c0 -5 12 -14 26 -21 15 -6 24 -14 21 -17 -7 -8 -67 25 -67 36 0 6 5
10 10 10 6 0 10 -4 10 -8z m727 -8 c-3 -3 -12 -4 -19 -1 -8 3 -5 6 6 6 11 1
17 -2 13 -5z m-497 -24 c-19 -13 -30 -13 -30 0 0 6 10 10 23 10 18 0 19 -2 7
-10z m2549 1 c9 -6 10 -14 4 -25 -9 -16 -11 -16 -22 -2 -17 20 -31 21 -31 2 0
-8 9 -18 20 -21 33 -10 23 -21 -16 -17 -20 3 -32 7 -27 11 5 3 8 13 8 21 -1
33 34 50 64 31z m-2623 -16 c-16 -17 -46 -20 -46 -6 0 9 20 17 48 20 10 1 10
-3 -2 -14z m2109 5 c3 -5 1 -10 -4 -10 -6 0 -11 5 -11 10 0 6 2 10 4 10 3 0 8
-4 11 -10z m-2062 -25 c0 -6 -7 -11 -16 -13 -12 -3 -15 1 -11 13 7 17 25 17
27 0z m1367 7 c0 -5 -7 -9 -15 -9 -8 0 -15 4 -15 9 0 4 7 8 15 8 8 0 15 -4 15
-8z m1125 -1 c3 -6 -3 -9 -14 -8 -11 0 -17 5 -15 9 7 11 22 10 29 -1z m-2739
-16 c-10 -8 -23 -12 -28 -9 -14 9 2 24 25 24 21 -1 21 -1 3 -15z m104 5 c0 -5
-2 -10 -4 -10 -3 0 -8 5 -11 10 -3 6 -1 10 4 10 6 0 11 -4 11 -10z m715 0 c3
-5 1 -10 -4 -10 -6 0 -11 5 -11 10 0 6 2 10 4 10 3 0 8 -4 11 -10z m-525 -4
c0 -2 -7 -6 -15 -10 -8 -3 -15 -1 -15 4 0 6 7 10 15 10 8 0 15 -2 15 -4z
m-150 -16 c0 -5 -7 -10 -15 -10 -8 0 -15 5 -15 10 0 6 7 10 15 10 8 0 15 -4
15 -10z m2165 0 c3 -5 2 -10 -4 -10 -5 0 -13 5 -16 10 -3 6 -2 10 4 10 5 0 13
-4 16 -10z m-2090 -10 c3 -6 -1 -7 -9 -4 -18 7 -21 14 -7 14 6 0 13 -4 16 -10z
m580 0 c3 -5 -1 -10 -9 -10 -9 0 -16 5 -16 10 0 6 4 10 9 10 6 0 13 -4 16 -10z
m-810 -10 c-3 -5 -10 -10 -16 -10 -5 0 -9 5 -9 10 0 6 7 10 16 10 8 0 12 -4 9
-10z m1552 -5 c0 -8 -4 -15 -9 -15 -4 0 -8 7 -8 15 0 8 4 15 8 15 5 0 9 -7 9
-15z m1220 -8 c4 -7 0 -8 -11 -4 -10 4 -22 7 -27 7 -5 0 -9 4 -9 9 0 12 38 2
47 -12z m-2697 -3 c0 -10 -7 -14 -22 -12 -32 5 -35 28 -4 28 17 0 26 -5 26
-16z m70 -4 c0 -5 8 -10 18 -12 11 -3 2 -9 -25 -18 -30 -9 -41 -18 -40 -31 1
-11 5 -19 9 -19 18 0 23 2 21 11 -2 5 2 9 7 9 6 0 20 9 32 20 30 27 41 25 56
-10 12 -27 16 -29 35 -18 l22 13 -22 3 c-13 2 -23 10 -23 19 0 10 5 13 18 8 9
-4 24 -9 33 -12 22 -6 13 -38 -14 -51 -14 -7 -16 -11 -7 -11 8 0 24 6 34 14
39 30 40 13 1 -20 -22 -19 -34 -35 -27 -35 7 0 22 9 33 19 22 21 59 34 59 22
0 -5 -10 -13 -22 -19 -19 -9 -20 -11 -5 -11 14 -1 16 -5 7 -20 -7 -15 -6 -23
5 -35 21 -20 19 -23 -16 -30 -27 -5 -30 -8 -19 -21 7 -8 20 -15 29 -15 11 -1
8 -5 -9 -15 -23 -12 -26 -12 -32 6 -9 23 -26 25 -34 4 -4 -8 -12 -15 -19 -15
-7 0 -26 -7 -41 -15 l-29 -15 27 0 c15 0 30 -4 33 -10 4 -6 -6 -10 -22 -10
-15 0 -44 -3 -64 -6 -31 -5 -37 -3 -42 15 -3 12 -12 21 -21 21 -9 0 -16 5 -16
10 0 6 12 10 26 10 16 0 24 5 22 13 -3 6 -16 12 -29 12 -29 0 -51 40 -54 99
-1 21 -8 44 -16 50 -8 6 -27 27 -42 47 l-28 37 27 6 c19 5 30 3 36 -7 5 -11
21 -14 55 -11 27 2 55 3 63 4 10 0 7 7 -10 20 -24 19 -24 19 -2 13 12 -3 22
-9 22 -13z m50 10 c0 -5 -4 -10 -9 -10 -6 0 -13 5 -16 10 -3 6 1 10 9 10 9 0
16 -4 16 -10z m70 0 c0 -5 -4 -10 -10 -10 -5 0 -10 5 -10 10 0 6 5 10 10 10 6
0 10 -4 10 -10z m585 0 c3 -5 1 -10 -4 -10 -6 0 -11 5 -11 10 0 6 2 10 4 10 3
0 8 -4 11 -10z m802 4 c-3 -3 -12 -4 -19 -1 -8 3 -5 6 6 6 11 1 17 -2 13 -5z
m-1420 -20 c-3 -3 -12 -4 -19 -1 -8 3 -5 6 6 6 11 1 17 -2 13 -5z m68 -4 c-3
-5 -13 -10 -21 -10 -8 0 -12 5 -9 10 3 6 13 10 21 10 8 0 12 -4 9 -10z m1375
0 c0 -5 -2 -10 -4 -10 -3 0 -8 5 -11 10 -3 6 -1 10 4 10 6 0 11 -4 11 -10z
m640 0 c0 -5 -2 -10 -4 -10 -3 0 -8 5 -11 10 -3 6 -1 10 4 10 6 0 11 -4 11
-10z m-1970 -4 c0 -2 -7 -6 -15 -10 -8 -3 -15 -1 -15 4 0 6 7 10 15 10 8 0 15
-2 15 -4z m485 -6 c3 -5 2 -10 -4 -10 -5 0 -13 5 -16 10 -3 6 -2 10 4 10 5 0
13 -4 16 -10z m945 0 c0 -28 -163 -58 -198 -36 -18 11 -14 25 6 20 13 -3 178
18 190 25 1 0 2 -3 2 -9z m-910 -20 c0 -5 -2 -10 -4 -10 -3 0 -8 5 -11 10 -3
6 -1 10 4 10 6 0 11 -4 11 -10z m1445 -10 c3 -5 1 -10 -4 -10 -6 0 -11 5 -11
10 0 6 2 10 4 10 3 0 8 -4 11 -10z m-1455 -20 c0 -5 -4 -10 -9 -10 -6 0 -13 5
-16 10 -3 6 1 10 9 10 9 0 16 -4 16 -10z m1455 -30 c3 -5 1 -10 -4 -10 -6 0
-11 5 -11 10 0 6 2 10 4 10 3 0 8 -4 11 -10z m-1435 -16 c0 -2 -7 -4 -15 -4
-8 0 -15 4 -15 10 0 5 7 7 15 4 8 -4 15 -8 15 -10z m1635 6 c3 -5 2 -10 -4
-10 -5 0 -13 5 -16 10 -3 6 -2 10 4 10 5 0 13 -4 16 -10z m82 -36 c8 -11 8
-24 1 -47 -6 -18 -13 -49 -15 -69 -3 -21 -9 -38 -15 -38 -5 0 -6 5 -3 10 3 6
2 10 -3 10 -13 0 -22 -48 -10 -52 15 -5 -3 -38 -21 -38 -13 0 -13 -2 -2 -9 7
-5 10 -14 7 -20 -4 -6 -12 -8 -18 -5 -7 5 -9 -2 -6 -18 4 -22 -14 -53 -25 -42
-2 3 -9 -9 -15 -25 -9 -26 -16 -31 -41 -31 -34 0 -41 19 -15 41 14 11 14 13 0
21 -18 10 -22 68 -5 68 5 0 7 5 4 10 -3 6 0 10 7 10 9 0 9 3 -2 10 -13 9 -7
14 13 11 4 0 7 4 7 9 0 6 -6 10 -12 10 -10 0 -10 2 -1 8 8 5 9 13 3 22 -14 21
-13 24 15 54 16 17 24 35 20 46 -3 10 2 23 11 31 15 12 18 12 22 0 3 -8 10 -1
18 19 12 28 17 31 41 26 16 -4 33 -14 40 -22z m-1702 -14 c3 -5 -1 -10 -9 -10
-9 0 -16 5 -16 10 0 6 4 10 9 10 6 0 13 -4 16 -10z m1959 -24 c-21 -15 -30
-14 -19 3 3 6 14 11 23 11 13 0 13 -2 -4 -14z m-1949 -16 c3 -5 -1 -10 -9 -10
-9 0 -16 5 -16 10 0 6 4 10 9 10 6 0 13 -4 16 -10z m1405 0 c0 -5 -2 -10 -4
-10 -3 0 -8 5 -11 10 -3 6 -1 10 4 10 6 0 11 -4 11 -10z m1014 -167 c1 -11 4
-19 7 -17 4 2 11 -15 17 -39 24 -94 23 -235 -2 -172 -3 8 -1 15 4 15 6 0 10 5
10 11 0 5 -4 7 -10 4 -5 -3 -7 0 -4 9 3 9 -5 19 -23 28 -19 9 -29 22 -31 41
-2 16 -9 27 -18 27 -8 0 -13 4 -10 9 3 5 -4 21 -15 35 -23 30 -19 62 7 52 14
-5 15 -4 5 8 -15 18 -7 36 17 37 11 0 12 3 5 6 -7 2 -13 11 -13 18 0 7 6 15
13 18 9 3 9 8 1 16 -6 7 -9 24 -6 38 4 21 9 11 25 -48 11 -41 21 -84 21 -96z
m-871 142 c-3 -9 -8 -14 -10 -11 -3 3 -2 9 2 15 9 16 15 13 8 -4z m321 -5 c15
-15 -1 -40 -21 -33 -24 9 -43 29 -43 43 0 13 48 5 64 -10z m66 -3 c19 -7 44
-18 55 -24 21 -12 26 -13 51 -13 11 0 7 -11 -16 -42 -17 -24 -51 -73 -75 -109
-39 -57 -48 -66 -70 -61 -25 4 -25 22 -1 22 17 0 50 36 39 43 -18 11 -63 4
-63 -10 0 -8 -4 -11 -10 -8 -19 12 19 141 47 158 8 5 11 17 7 33 -7 28 -9 27
36 11z m-1920 -17 c0 -5 -7 -10 -15 -10 -8 0 -15 5 -15 10 0 6 7 10 15 10 8 0
15 -4 15 -10z m-504 -38 c10 -7 22 -44 28 -87 6 -44 18 -65 42 -71 16 -4 23
-12 20 -20 -3 -8 -1 -14 5 -14 6 0 13 9 16 20 3 11 9 20 15 20 5 0 4 -9 -2
-20 -9 -17 -8 -20 7 -20 15 0 16 -2 3 -10 -11 -7 -7 -10 18 -10 26 0 35 -5 42
-26 6 -14 17 -33 26 -42 10 -10 12 -18 6 -20 -6 -2 -3 -17 10 -37 14 -24 18
-45 15 -71 -4 -30 -2 -37 15 -42 13 -3 16 -7 8 -12 -9 -6 -10 -16 -1 -41 6
-19 12 -51 13 -71 2 -21 8 -40 14 -42 6 -2 15 -25 18 -50 4 -25 12 -46 17 -46
6 0 7 -4 4 -10 -3 -5 -2 -10 4 -10 5 0 12 6 14 13 4 8 6 9 6 0 1 -6 -6 -19
-15 -27 -14 -15 -14 -16 0 -16 14 0 20 -12 17 -32 0 -5 4 -8 10 -8 6 0 8 -8 4
-19 -3 -11 -1 -22 5 -26 6 -3 8 -11 5 -16 -4 -5 1 -12 9 -15 12 -5 16 -20 16
-60 0 -31 4 -54 11 -54 5 0 8 -4 5 -9 -4 -5 -2 -20 3 -32 6 -18 4 -27 -8 -36
-15 -11 -14 -12 1 -13 23 0 19 -21 -7 -37 -19 -12 -19 -13 5 -10 22 2 24 -2
26 -45 2 -28 -2 -48 -8 -48 -5 0 -8 -7 -4 -15 3 -8 1 -15 -5 -15 -6 0 -19 -10
-28 -22 -18 -21 -18 -21 -46 63 -15 46 -32 89 -37 96 -5 7 -7 26 -3 43 5 24 3
30 -10 30 -13 0 -16 6 -12 21 3 12 0 22 -9 26 -8 3 -14 9 -14 14 0 14 -26 69
-54 114 -14 22 -33 53 -42 69 -15 28 -15 29 2 21 11 -4 32 -10 48 -13 l30 -5
-25 25 c-14 14 -37 28 -51 31 -15 4 -47 26 -72 48 l-45 41 22 19 c17 14 18 18
7 19 -9 0 -21 -5 -28 -12 -9 -9 -12 -8 -12 6 0 11 -5 16 -14 13 -17 -7 -42 19
-48 48 -2 12 -10 19 -20 17 -8 -1 -32 19 -54 45 -21 27 -41 50 -45 53 -4 3
-11 19 -15 35 -7 30 -15 42 -48 75 -10 10 -15 23 -11 29 3 6 -1 18 -10 27 -9
9 -14 23 -11 30 3 8 2 14 -3 14 -4 0 -20 10 -34 23 -23 20 -24 24 -11 41 8 11
14 17 14 13 0 -4 9 1 20 10 25 22 25 39 1 53 -26 13 -31 13 -25 -4 3 -7 -2
-16 -10 -19 -10 -4 -16 -1 -16 9 0 11 -6 14 -22 9 -18 -4 -16 -2 6 11 29 16
139 24 153 10 4 -3 0 -29 -9 -56 -9 -28 -12 -50 -7 -50 5 0 10 5 10 10 1 6 3
15 4 20 1 6 3 14 4 19 0 5 10 13 21 16 28 9 49 54 43 93 -5 31 -5 32 33 32 22
0 44 -4 50 -8z m1894 -2 c0 -5 -2 -10 -4 -10 -3 0 -8 5 -11 10 -3 6 -1 10 4
10 6 0 11 -4 11 -10z m-1370 -10 c0 -5 -7 -10 -15 -10 -8 0 -15 5 -15 10 0 6
7 10 15 10 8 0 15 -4 15 -10z m-630 -46 c0 -11 -5 -12 -17 -6 -10 5 -24 7 -30
5 -7 -3 -13 0 -13 5 0 12 29 20 48 14 6 -2 12 -11 12 -18z m640 -4 c0 -5 -7
-7 -15 -4 -8 4 -15 8 -15 10 0 2 7 4 15 4 8 0 15 -4 15 -10z m1690 -44 c0 -8
-9 -24 -19 -37 l-19 -24 11 38 c12 37 27 50 27 23z m-1673 -2 c-3 -3 -12 -4
-19 -1 -8 3 -5 6 6 6 11 1 17 -2 13 -5z m1739 -20 c-4 -10 4 -30 19 -50 25
-32 25 -34 6 -34 -20 0 -48 36 -37 47 3 4 1 13 -6 20 -9 11 -9 17 3 24 20 12
22 11 15 -7z m-2646 -14 c0 -5 -5 -10 -11 -10 -5 0 -7 5 -4 10 3 6 8 10 11 10
2 0 4 -4 4 -10z m915 -10 c3 -5 -1 -10 -9 -10 -9 0 -16 5 -16 10 0 6 4 10 9
10 6 0 13 -4 16 -10z m2652 -22 c-3 -8 -6 -5 -6 6 -1 11 2 17 5 13 3 -3 4 -12
1 -19z m-1337 8 c0 -3 -4 -8 -10 -11 -5 -3 -10 -1 -10 4 0 6 5 11 10 11 6 0
10 -2 10 -4z m400 -27 c0 -5 -4 -8 -9 -4 -5 3 -12 1 -16 -5 -3 -5 -16 -10 -28
-10 -21 1 -21 1 3 15 30 17 50 19 50 4z m523 2 c5 -1 5 -5 2 -11 -3 -5 -1 -10
5 -10 6 0 8 -5 5 -11 -4 -6 0 -9 10 -7 10 2 22 -5 29 -16 6 -10 21 -29 34 -42
12 -13 22 -28 22 -34 0 -6 10 -15 23 -20 l22 -9 -22 0 c-28 -1 -29 -12 -3 -36
25 -22 26 -35 3 -35 -10 0 -54 -9 -97 -20 l-79 -20 -22 20 c-12 11 -26 20 -32
20 -6 0 -13 11 -15 25 -3 14 -2 25 2 25 10 0 31 -25 26 -31 -2 -2 10 -14 25
-27 33 -27 38 -12 9 25 -11 14 -20 34 -20 44 0 10 -4 21 -10 24 -5 3 -10 15
-10 26 0 10 5 19 10 19 6 0 9 5 8 12 -2 6 8 15 22 19 16 4 19 7 8 8 -11 1 -18
9 -18 20 0 35 11 51 33 47 12 -3 26 -5 30 -5z m-2218 -11 c3 -5 2 -10 -4 -10
-5 0 -13 5 -16 10 -3 6 -2 10 4 10 5 0 13 -4 16 -10z m1585 -10 c0 -5 -8 -10
-17 -10 -15 0 -16 2 -3 10 19 12 20 12 20 0z m-2463 -6 c-3 -3 -12 -4 -19 -1
-8 3 -5 6 6 6 11 1 17 -2 13 -5z m2649 -48 c-25 -29 -46 -56 -46 -60 0 -3 -13
-25 -30 -48 -16 -22 -30 -46 -30 -53 0 -21 -22 -36 -37 -23 -11 9 -10 13 4 24
17 13 17 13 -3 14 -16 0 -27 -14 -47 -60 -15 -33 -27 -64 -27 -70 0 -15 -16
-12 -30 5 -7 8 -19 15 -26 15 -16 0 -19 -37 -4 -42 5 -2 12 -19 15 -38 3 -19
3 -29 -1 -22 -8 17 -24 15 -24 -4 0 -14 7 -15 45 -10 29 5 45 4 45 -3 0 -6 -4
-11 -9 -11 -5 0 -12 -17 -16 -37 -9 -47 -33 -95 -46 -91 -6 2 -10 7 -10 11 1
4 1 21 1 37 0 21 5 30 16 30 10 0 14 6 10 15 -3 8 0 15 6 15 9 0 9 3 0 12 -15
15 -46 -15 -56 -55 -3 -15 -10 -27 -15 -27 -10 0 -3 39 11 56 5 7 7 50 4 97
-5 84 -5 85 17 80 12 -3 28 -10 35 -16 8 -7 12 -5 12 6 0 9 -4 19 -10 22 -5 3
-10 12 -9 18 0 9 2 9 6 0 7 -19 21 -16 28 7 3 11 -1 30 -11 45 -10 15 -12 25
-5 25 6 0 11 -6 12 -12 0 -10 2 -10 5 -1 3 7 12 9 21 6 11 -4 14 -2 9 5 -4 7
-16 12 -27 12 -16 0 -18 2 -7 14 7 8 16 12 20 9 4 -2 5 3 2 11 -3 9 -1 16 5
16 6 0 11 -5 11 -11 0 -5 5 -7 10 -4 6 4 8 11 5 16 -4 5 -1 9 4 9 6 0 11 5 11
11 0 6 -9 9 -19 6 -16 -4 -18 -1 -11 12 5 9 11 24 14 33 3 9 13 17 23 16 30
-1 155 22 172 32 9 5 17 10 19 10 2 0 -17 -24 -42 -54z m-247 23 c-8 -5 -21
-9 -29 -9 -12 1 -11 4 4 15 10 8 23 12 29 8 5 -3 3 -9 -4 -14z m-2399 1 c0 -5
-5 -10 -11 -10 -5 0 -7 5 -4 10 3 6 8 10 11 10 2 0 4 -4 4 -10z m905 -50 c3
-5 -1 -10 -10 -10 -9 0 -13 5 -10 10 3 6 8 10 10 10 2 0 7 -4 10 -10z m1482
-21 c-9 -6 -17 -21 -17 -34 0 -17 -5 -25 -17 -24 -11 0 -13 3 -5 6 6 2 12 15
12 28 0 22 29 50 40 38 3 -2 -3 -9 -13 -14z m-2337 -39 c0 -5 -5 -10 -11 -10
-5 0 -7 5 -4 10 3 6 8 10 11 10 2 0 4 -4 4 -10z m17 -26 c-3 -3 -12 -4 -19 -1
-8 3 -5 6 6 6 11 1 17 -2 13 -5z m3193 -4 c0 -5 -7 -7 -15 -4 -8 4 -15 8 -15
10 0 2 7 4 15 4 8 0 15 -4 15 -10z m-3169 -27 c1 -10 1 -22 0 -26 -1 -5 3 -6
8 -3 5 3 30 -19 56 -50 26 -30 50 -53 52 -50 3 3 -7 17 -21 33 -32 34 -35 55
-3 25 25 -24 66 -89 48 -78 -6 4 -11 5 -11 3 0 -6 163 -167 169 -167 4 0 12
-9 19 -20 11 -18 10 -20 -9 -20 -11 0 -17 5 -14 10 3 6 -1 10 -9 10 -9 0 -16
4 -16 10 0 9 -53 53 -124 105 -39 28 -86 74 -86 83 0 4 -9 14 -19 22 -11 7
-18 17 -15 22 3 4 0 8 -5 8 -6 0 -11 5 -11 11 0 6 -7 17 -16 26 -8 9 -13 22
-10 29 3 9 -1 14 -12 14 -15 0 -15 2 -2 10 22 14 30 12 31 -7z m849 -23 c0 -5
-4 -10 -10 -10 -5 0 -10 5 -10 10 0 6 5 10 10 10 6 0 10 -4 10 -10z m2051 -14
l42 -24 -39 -11 c-21 -6 -58 -13 -81 -17 -36 -5 -43 -4 -43 10 0 9 8 16 19 16
11 0 21 6 23 12 4 10 11 10 34 0 28 -11 28 -11 7 4 -23 17 -30 34 -14 34 5 0
28 -11 52 -24z m-581 -6 c0 -5 -5 -10 -11 -10 -5 0 -7 5 -4 10 3 6 8 10 11 10
2 0 4 -4 4 -10z m804 -5 c3 -8 1 -15 -4 -15 -6 0 -10 5 -10 11 0 5 -5 7 -10 4
-13 -8 -3 -63 15 -82 19 -19 19 -37 0 -29 -8 3 -15 1 -15 -4 0 -16 -34 2 -57
29 -21 25 -22 25 -29 6 -4 -11 -15 -26 -23 -33 -14 -12 -14 -13 2 -8 9 3 24 3
32 0 28 -11 15 -20 -29 -19 -35 1 -48 7 -69 31 -14 16 -28 26 -32 22 -10 -9 5
-68 16 -68 6 0 7 -5 3 -12 -4 -6 -3 -8 4 -4 6 3 13 2 16 -2 3 -5 16 -8 28 -6
13 2 67 11 122 19 91 15 119 15 103 -1 -3 -4 -48 -10 -98 -15 -51 -5 -95 -11
-98 -15 -3 -3 24 -3 62 1 46 5 67 4 67 -4 0 -5 -7 -8 -15 -5 -8 4 -15 2 -15
-4 0 -5 -11 -7 -25 -4 -14 2 -25 0 -25 -6 0 -6 -9 -8 -20 -5 -11 3 -20 1 -20
-3 0 -5 -19 -10 -42 -11 -23 -2 -45 -8 -48 -14 -4 -6 -16 -10 -26 -8 -11 1
-27 -1 -36 -6 -10 -4 -25 -5 -33 -1 -8 3 -21 -2 -30 -11 -10 -9 -27 -14 -45
-11 -21 3 -30 0 -30 -9 0 -7 -11 -13 -26 -13 -16 0 -24 -5 -21 -12 4 -15 66
-12 107 4 14 6 45 12 69 14 25 2 47 8 50 13 4 5 20 13 36 17 17 4 35 9 40 13
6 3 19 7 30 7 11 1 43 5 70 8 28 4 63 8 79 10 15 2 32 10 37 17 7 11 9 10 9
-3 0 -10 6 -18 13 -18 6 -1 -1 -7 -18 -15 -27 -13 -28 -14 -4 -9 21 4 31 -2
62 -41 22 -29 33 -53 30 -63 -5 -11 -2 -14 10 -9 10 4 31 -10 64 -43 26 -27
52 -50 57 -50 5 0 18 8 28 17 19 17 19 16 13 -12 -4 -17 -18 -39 -31 -50 -13
-12 -24 -26 -24 -33 0 -7 -4 -12 -10 -12 -16 0 -12 12 17 42 15 15 21 28 14
28 -7 0 -27 -16 -44 -35 -23 -26 -33 -32 -40 -23 -6 9 -7 8 -3 -5 7 -22 -36
-73 -85 -98 -20 -10 -61 -40 -90 -66 -126 -114 -119 -111 -275 -122 -76 -6
-228 -11 -336 -11 l-196 0 -22 36 c-16 25 -19 39 -12 46 6 6 8 17 5 24 -5 14
6 18 39 15 9 -1 19 3 23 9 16 25 76 -8 75 -43 0 -7 -5 -5 -10 5 -7 11 -23 17
-50 16 -32 0 -38 -3 -30 -13 6 -7 20 -11 31 -8 11 3 27 -1 37 -9 10 -9 35 -15
64 -14 52 2 64 8 52 28 -4 7 -9 20 -9 30 -2 24 -48 60 -57 45 -5 -8 -8 -6 -8
6 0 10 -6 20 -14 23 -8 3 -13 14 -11 25 2 10 -1 18 -8 16 -6 -1 -13 8 -15 20
-2 13 -10 23 -19 23 -9 0 -13 -6 -10 -14 3 -8 -1 -20 -8 -26 -16 -13 -10 -34
6 -25 5 4 9 2 9 -3 0 -13 -43 -23 -53 -13 -5 5 2 19 16 31 14 12 23 29 20 36
-3 8 2 30 12 50 19 41 122 147 135 139 5 -3 11 -1 15 4 3 6 12 8 19 5 20 -8
28 25 12 48 -10 13 -15 16 -18 6 -3 -7 -7 -4 -10 9 -4 16 -2 20 9 16 7 -3 13
-2 12 3 -3 18 1 34 9 32 4 -1 18 2 31 6 17 6 20 10 11 16 -17 11 -6 52 18 67
23 14 40 4 45 -25 4 -29 12 -35 37 -27 20 6 20 8 -10 41 -20 23 -30 45 -30 66
0 34 0 34 49 -30 19 -25 31 -49 27 -58 -4 -10 -2 -13 6 -8 7 4 21 8 32 9 60 5
97 18 94 34 -3 12 -14 16 -52 14 -39 -2 -53 2 -68 19 -10 11 -18 25 -18 30 0
4 -9 8 -19 8 -11 0 -23 5 -27 11 -8 14 16 31 34 24 8 -3 46 2 85 11 40 9 89
19 110 24 21 4 37 4 37 -1 0 -5 4 -9 10 -9 5 0 7 7 4 15 -4 9 3 16 20 21 29 7
46 -1 46 -22 0 -8 5 -14 10 -14 12 0 13 11 0 30 -9 14 0 19 51 29 4 0 9 -6 13
-14z m-849 -25 c3 -5 1 -10 -4 -10 -6 0 -11 5 -11 10 0 6 2 10 4 10 3 0 8 -4
11 -10z m145 6 c0 -2 -13 -34 -29 -71 -24 -57 -29 -64 -34 -43 -4 12 -2 25 3
26 6 2 8 8 4 13 -3 5 0 9 5 9 6 0 11 9 11 20 0 21 18 49 33 50 4 0 7 -2 7 -4z
m-1889 -72 c14 -37 6 -39 -15 -4 -10 17 -13 30 -6 30 6 0 15 -12 21 -26z
m2644 -94 c-3 -5 -12 -10 -18 -10 -7 0 -6 4 3 10 19 12 23 12 15 0z m-2315
-94 c0 -3 -4 -8 -10 -11 -5 -3 -10 -1 -10 4 0 6 5 11 10 11 6 0 10 -2 10 -4z
m-520 -40 c0 -2 3 -11 6 -20 3 -9 1 -16 -6 -16 -6 0 -8 5 -5 10 3 6 -1 10 -9
10 -9 0 -16 5 -16 10 0 6 7 10 15 10 8 0 15 -2 15 -4z m27 -62 c-3 -3 -12 -4
-19 -1 -8 3 -5 6 6 6 11 1 17 -2 13 -5z m1918 -16 c-4 -13 -11 -51 -17 -85 -6
-35 -15 -63 -20 -63 -7 0 -8 12 -3 33 4 17 9 52 10 77 3 61 3 60 21 60 12 0
15 -6 9 -22z m-1910 -8 c-3 -5 -10 -10 -16 -10 -5 0 -9 5 -9 10 0 6 7 10 16
10 8 0 12 -4 9 -10z m1945 1 c0 -6 -4 -13 -10 -16 -5 -3 -10 1 -10 9 0 9 5 16
10 16 6 0 10 -4 10 -9z m-1440 -5 c0 -3 -4 -8 -10 -11 -5 -3 -10 -1 -10 4 0 6
5 11 10 11 6 0 10 -2 10 -4z m-495 -26 c-3 -5 -10 -10 -16 -10 -5 0 -9 5 -9
10 0 6 7 10 16 10 8 0 12 -4 9 -10z m505 -24 c0 -11 -19 -15 -25 -6 -3 5 1 10
9 10 9 0 16 -2 16 -4z m-483 -32 c-3 -3 -12 -4 -19 -1 -8 3 -5 6 6 6 11 1 17
-2 13 -5z m483 -14 c0 -5 -4 -10 -10 -10 -5 0 -10 5 -10 10 0 6 5 10 10 10 6
0 10 -4 10 -10z m-475 -10 c3 -5 -1 -10 -10 -10 -9 0 -13 5 -10 10 3 6 8 10
10 10 2 0 7 -4 10 -10z m3015 -30 c-7 -13 -7 -20 -1 -20 6 0 8 -7 4 -15 -8
-22 -16 -11 -18 25 -1 20 3 30 12 30 11 0 11 -5 3 -20z m-3010 0 c0 -5 -5 -10
-11 -10 -5 0 -7 5 -4 10 3 6 8 10 11 10 2 0 4 -4 4 -10z m480 1 c0 -12 -20
-25 -27 -18 -7 7 6 27 18 27 5 0 9 -4 9 -9z m-460 -25 c0 -3 -4 -8 -10 -11 -5
-3 -10 -1 -10 4 0 6 5 11 10 11 6 0 10 -2 10 -4z m2969 -51 c0 -5 -4 -3 -9 5
-5 8 -9 22 -9 30 0 16 17 -16 18 -35z m-2509 25 c0 -5 -4 -10 -10 -10 -5 0
-10 5 -10 10 0 6 5 10 10 10 6 0 10 -4 10 -10z m10 -40 c0 -5 -7 -10 -16 -10
-8 0 -12 5 -9 10 3 6 10 10 16 10 5 0 9 -4 9 -10z m10 -39 c0 -12 -20 -25 -27
-18 -7 7 6 27 18 27 5 0 9 -4 9 -9z m1317 -13 c2 -17 0 -19 -7 -8 -5 8 -6 18
-4 22 8 12 10 10 11 -14z m-1747 -28 c0 -5 -5 -10 -11 -10 -5 0 -7 5 -4 10 3
6 8 10 11 10 2 0 4 -4 4 -10z m434 -15 c-4 -8 -10 -15 -15 -15 -5 0 -9 7 -9
15 0 8 7 15 15 15 9 0 12 -6 9 -15z m1316 5 c0 -5 -4 -10 -10 -10 -5 0 -10 5
-10 10 0 6 5 10 10 10 6 0 10 -4 10 -10z m-2813 -50 c28 -56 28 -59 3 -53 -11
3 -21 13 -22 22 0 9 -2 21 -3 26 -2 6 -3 18 -4 28 0 9 -6 17 -12 17 -5 0 -7
-6 -3 -12 5 -9 2 -9 -9 1 -23 18 -21 23 6 19 15 -2 29 -18 44 -48z m3076 30
c3 -11 1 -20 -4 -20 -4 0 -13 9 -19 20 -8 16 -8 20 3 20 8 0 17 -9 20 -20z
m-1573 -18 c0 -13 -12 -22 -22 -16 -10 6 -1 24 13 24 5 0 9 -4 9 -8z m5 -52
c-3 -5 -10 -10 -16 -10 -5 0 -9 5 -9 10 0 6 7 10 16 10 8 0 12 -4 9 -10z m1
-47 c-10 -10 -19 5 -10 18 6 11 8 11 12 0 2 -7 1 -15 -2 -18z"/>
<path d="M3674 1775 c-18 -15 -18 -15 5 -13 14 2 26 9 29 16 5 17 -10 15 -34
-3z"/>
<path d="M3740 1749 c0 -5 5 -7 10 -4 6 3 10 8 10 11 0 2 -4 4 -10 4 -5 0 -10
-5 -10 -11z"/>
<path d="M3610 1617 c0 -7 7 -22 15 -33 8 -12 11 -25 7 -29 -4 -5 -1 -5 6 -1
7 4 10 11 7 16 -3 4 2 10 10 14 8 3 14 13 14 23 -1 17 -2 17 -6 1 -2 -10 -8
-18 -13 -18 -4 0 -6 9 -3 20 4 15 0 20 -16 20 -11 0 -21 -6 -21 -13z"/>
<path d="M2385 1871 c-3 -5 -1 -12 5 -16 5 -3 10 1 10 9 0 18 -6 21 -15 7z"/>
<path d="M665 1589 c-10 -15 3 -25 16 -12 7 7 7 13 1 17 -6 3 -14 1 -17 -5z"/>
<path d="M770 1570 c-24 -8 -24 -8 7 -9 17 -1 35 4 38 9 7 11 -9 11 -45 0z"/>
<path d="M741 1519 c-10 -28 -9 -31 12 -24 8 4 14 13 13 20 -4 26 -16 28 -25
4z"/>
<path d="M801 1521 c-27 -20 -13 -39 16 -22 12 7 14 10 4 11 -11 0 -11 3 -1
15 16 20 10 19 -19 -4z"/>
<path d="M905 1490 c-3 -5 -1 -10 4 -10 6 0 11 5 11 10 0 6 -2 10 -4 10 -3 0
-8 -4 -11 -10z"/>
<path d="M663 1476 c0 -8 8 -11 19 -8 10 2 18 8 18 13 0 5 -8 9 -18 9 -10 0
-19 -6 -19 -14z"/>
<path d="M824 1456 c-10 -8 -16 -17 -12 -21 8 -8 48 13 48 25 0 14 -13 12 -36
-4z"/>
<path d="M888 1443 c7 -3 16 -2 19 1 4 3 -2 6 -13 5 -11 0 -14 -3 -6 -6z"/>
<path d="M775 1420 c4 -6 11 -8 16 -5 14 9 11 15 -7 15 -8 0 -12 -5 -9 -10z"/>
<path d="M3920 1226 c0 -9 5 -16 10 -16 6 0 10 4 10 9 0 6 -4 13 -10 16 -5 3
-10 -1 -10 -9z"/>
<path d="M3450 1340 c-6 -11 -7 -20 -2 -20 6 0 12 9 15 20 3 11 3 20 1 20 -2
0 -8 -9 -14 -20z"/>
<path d="M3438 1303 c7 -3 16 -2 19 1 4 3 -2 6 -13 5 -11 0 -14 -3 -6 -6z"/>
<path d="M3400 1271 c-19 -23 -23 -42 -7 -35 13 5 40 55 29 53 -4 0 -14 -9
-22 -18z"/>
<path d="M925 1031 c3 -5 1 -12 -5 -16 -6 -4 -8 -11 -5 -16 4 -5 1 -9 -5 -9
-6 0 -9 -4 -5 -9 3 -5 -2 -17 -11 -25 -13 -13 -13 -16 -1 -16 21 0 36 22 42
63 4 24 2 37 -5 37 -6 0 -9 -4 -5 -9z"/>
<path d="M1343 363 c-7 -2 -13 -8 -13 -12 0 -12 25 -9 38 6 10 10 10 13 0 12
-7 0 -19 -3 -25 -6z"/>
<path d="M1345 270 c-3 -5 -1 -10 4 -10 6 0 11 5 11 10 0 6 -2 10 -4 10 -3 0
-8 -4 -11 -10z"/>
<path d="M1435 200 c4 -6 11 -8 16 -5 14 9 11 15 -7 15 -8 0 -12 -5 -9 -10z"/>
<path d="M3813 1024 c2 -14 8 -29 14 -32 5 -4 16 -18 22 -30 7 -13 15 -21 18
-19 2 3 -7 25 -21 50 -14 24 -23 47 -19 50 3 4 1 7 -6 7 -7 0 -10 -10 -8 -26z"/>
<path d="M3790 967 c0 -2 14 -13 31 -26 l31 -23 -17 26 c-10 14 -24 26 -31 26
-8 0 -14 -1 -14 -3z"/>
<path d="M3900 961 c0 -5 7 -12 16 -15 14 -5 15 -4 4 9 -14 17 -20 19 -20 6z"/>
<path d="M3270 1020 c-13 -8 -12 -10 3 -10 9 0 17 5 17 10 0 12 -1 12 -20 0z"/>
<path d="M3240 990 c0 -5 5 -10 11 -10 5 0 7 5 4 10 -3 6 -8 10 -11 10 -2 0
-4 -4 -4 -10z"/>
<path d="M3220 964 c0 -8 5 -12 10 -9 6 4 8 11 5 16 -9 14 -15 11 -15 -7z"/>
<path d="M3875 830 c3 -5 8 -10 11 -10 2 0 4 5 4 10 0 6 -5 10 -11 10 -5 0 -7
-4 -4 -10z"/>
<path d="M3748 693 c7 -3 16 -2 19 1 4 3 -2 6 -13 5 -11 0 -14 -3 -6 -6z"/>
<path d="M3708 683 c7 -3 16 -2 19 1 4 3 -2 6 -13 5 -11 0 -14 -3 -6 -6z"/>
<path d="M3585 661 c-84 -24 -95 -29 -63 -30 15 -1 29 3 32 8 4 5 29 12 56 16
27 4 52 11 56 16 7 12 -10 10 -81 -10z"/>
<path d="M3468 653 c7 -3 16 -2 19 1 4 3 -2 6 -13 5 -11 0 -14 -3 -6 -6z"/>
<path d="M3450 620 c0 -5 5 -10 10 -10 6 0 10 5 10 10 0 6 -4 10 -10 10 -5 0
-10 -4 -10 -10z"/>
<path d="M3978 603 c7 -3 16 -2 19 1 4 3 -2 6 -13 5 -11 0 -14 -3 -6 -6z"/>
<path d="M3417 560 c6 -22 11 -24 33 -10 17 10 14 15 -17 24 -18 6 -20 4 -16
-14z"/>
<path d="M4045 569 c-4 -6 -13 -8 -21 -5 -19 7 -27 -11 -14 -31 11 -17 11 -17
6 0 -3 10 0 17 8 17 7 0 19 7 26 15 7 8 10 15 7 15 -3 0 -9 -5 -12 -11z"/>
<path d="M3948 536 c-10 -7 -18 -21 -18 -31 0 -14 -3 -15 -15 -5 -20 16 -20
-7 -1 -33 12 -15 14 -16 20 -2 3 8 11 15 18 15 15 0 36 41 30 58 -5 15 -13 15
-34 -2z"/>
<path d="M4053 515 c0 -8 4 -12 9 -9 4 3 8 9 8 15 0 5 -4 9 -8 9 -5 0 -9 -7
-9 -15z"/>
<path d="M4106 507 c3 -10 1 -17 -5 -17 -6 0 -11 -8 -11 -17 -1 -17 -1 -17
-11 0 -5 9 -16 17 -24 17 -7 0 -16 6 -18 13 -4 9 -6 9 -6 0 -1 -12 24 -40 70
-77 15 -13 19 -21 11 -24 -7 -2 -12 -10 -12 -18 0 -21 -14 -17 -39 10 -14 15
-20 30 -16 37 5 7 4 10 -2 6 -26 -16 -21 -46 11 -66 17 -12 25 -21 17 -21 -11
0 -11 -3 -1 -15 14 -17 50 -20 50 -5 0 6 -4 10 -10 10 -15 0 -12 19 5 37 12
12 19 13 30 3 11 -9 15 -9 15 -1 0 6 -4 11 -9 11 -6 0 -9 12 -8 27 2 22 -3 29
-20 31 -13 2 -23 8 -23 13 0 8 15 13 33 10 14 -2 7 16 -13 34 -18 17 -20 17
-14 2z"/>
<path d="M3316 461 c-4 -5 -2 -12 3 -15 5 -4 12 -2 15 3 4 5 2 12 -3 15 -5 4
-12 2 -15 -3z"/>
<path d="M4159 453 c12 -24 31 -39 31 -25 0 5 -10 17 -21 28 -22 19 -22 19
-10 -3z"/>
<path d="M3387 444 c-2 -3 8 -28 24 -57 16 -29 38 -70 50 -92 12 -22 30 -50
40 -63 10 -13 27 -43 39 -68 l22 -44 73 0 c79 0 94 9 99 55 5 37 12 40 31 11
14 -21 23 -25 56 -22 21 2 39 0 39 -5 0 -5 5 -9 10 -9 24 0 6 23 -30 38 -29
13 -40 23 -40 39 0 12 4 25 10 28 5 3 13 20 18 38 7 28 13 32 42 32 24 0 38 7
54 28 13 18 17 30 10 35 -6 4 -16 16 -22 27 -10 19 -11 18 -17 -6 -5 -20 -11
-25 -26 -22 -30 8 -73 -6 -61 -20 12 -15 3 -108 -11 -107 -4 0 -11 0 -17 0 -5
0 -10 7 -10 15 0 27 -19 16 -35 -21 -13 -32 -38 -40 -34 -11 5 38 -13 89 -26
75 -5 -5 4 -80 19 -155 5 -26 -7 -29 -48 -13 -16 6 -26 17 -26 30 0 11 -6 20
-14 20 -21 0 -31 -21 -16 -30 8 -5 10 -15 5 -26 -6 -17 -9 -15 -20 11 -7 17
-15 45 -18 62 -5 32 -44 105 -59 111 -4 2 -8 7 -8 12 0 14 -54 70 -68 70 -7 0
-11 3 -9 8 6 8 -19 33 -26 26z"/>
<path d="M4030 312 c0 -13 23 -32 39 -32 11 0 9 5 -7 20 -23 21 -32 25 -32 12z"/>
<path d="M3850 280 c0 -6 7 -13 16 -17 11 -4 14 -14 10 -32 -3 -14 -3 -20 0
-13 5 10 9 10 20 1 9 -7 14 -8 14 -1 0 6 7 18 17 27 15 16 15 17 -3 13 -11 -1
-32 5 -47 15 -15 10 -27 13 -27 7z"/>
<path d="M3368 182 c-8 -29 13 -65 40 -67 12 -1 22 2 22 7 0 4 -4 8 -10 8 -5
0 -18 16 -28 36 -17 32 -20 34 -24 16z"/>
<path d="M3432 170 c7 -11 16 -20 20 -20 4 0 5 -6 3 -12 -3 -9 6 -14 25 -15
16 -1 30 2 30 7 0 6 -4 10 -10 10 -5 0 -10 6 -10 13 0 13 -40 37 -61 37 -5 0
-4 -9 3 -20z"/>
<path d="M3120 120 c0 -5 5 -10 11 -10 5 0 7 5 4 10 -3 6 -8 10 -11 10 -2 0
-4 -4 -4 -10z"/>
<path d="M3256 75 c4 -8 11 -15 16 -15 6 0 5 6 -2 15 -7 8 -14 15 -16 15 -2 0
-1 -7 2 -15z"/>
<path d="M3290 70 c0 -5 5 -10 10 -10 6 0 10 5 10 10 0 6 -4 10 -10 10 -5 0
-10 -4 -10 -10z"/>
<path d="M3330 70 c0 -5 5 -10 11 -10 5 0 7 5 4 10 -3 6 -8 10 -11 10 -2 0 -4
-4 -4 -10z"/>
<path d="M220 111 c0 -6 4 -13 10 -16 6 -3 7 1 4 9 -7 18 -14 21 -14 7z"/>
<path d="M2050 5040 c0 -5 7 -7 15 -4 8 4 15 8 15 10 0 2 -7 4 -15 4 -8 0 -15
-4 -15 -10z"/>
<path d="M2150 4281 c0 -5 5 -13 10 -16 6 -3 10 -2 10 4 0 5 -4 13 -10 16 -5
3 -10 2 -10 -4z"/>
<path d="M2045 4260 c-3 -5 -2 -10 4 -10 5 0 13 5 16 10 3 6 2 10 -4 10 -5 0
-13 -4 -16 -10z"/>
<path d="M2140 4250 c0 -8 46 -30 60 -30 6 0 10 6 10 14 0 8 -14 15 -35 18
-19 2 -35 1 -35 -2z"/>
<path d="M2210 4200 c0 -5 7 -10 16 -10 8 0 12 5 9 10 -3 6 -10 10 -16 10 -5
0 -9 -4 -9 -10z"/>
<path d="M2335 3950 c-3 -5 -1 -10 4 -10 6 0 11 5 11 10 0 6 -2 10 -4 10 -3 0
-8 -4 -11 -10z"/>
<path d="M2924 3406 c-11 -29 -9 -109 3 -113 14 -5 25 29 27 84 1 37 -19 58
-30 29z"/>
<path d="M2880 3255 c-7 -25 -10 -48 -8 -51 3 -3 9 11 12 31 4 19 11 35 16 35
6 0 10 7 10 15 0 31 -18 13 -30 -30z"/>
<path d="M2841 3109 c-9 -25 3 -34 33 -27 12 2 11 8 -5 27 l-19 23 -9 -23z"/>
<path d="M3187 2293 c5 -12 3 -14 -8 -8 -8 5 -11 4 -6 0 7 -9 37 -16 37 -10 0
12 -14 35 -21 35 -4 0 -5 -7 -2 -17z"/>
<path d="M810 2200 c0 -6 11 -8 28 -4 39 10 40 14 4 14 -18 0 -32 -5 -32 -10z"/>
<path d="M792 2164 c-7 -8 -8 -14 -3 -14 10 0 25 19 20 25 -2 1 -10 -3 -17
-11z"/>
<path d="M3310 2090 c0 -5 5 -10 10 -10 6 0 10 5 10 10 0 6 -4 10 -10 10 -5 0
-10 -4 -10 -10z"/>
<path d="M3540 2090 c0 -5 4 -10 9 -10 6 0 13 5 16 10 3 6 -1 10 -9 10 -9 0
-16 -4 -16 -10z"/>
<path d="M3410 2064 c0 -7 -8 -17 -17 -23 -15 -8 -16 -12 -5 -22 10 -11 18
-10 41 4 16 9 39 17 51 17 17 0 60 28 48 31 -2 0 -29 2 -60 4 -43 2 -58 -1
-58 -11z"/>
<path d="M582 2028 c8 -22 36 -34 50 -20 9 9 7 12 -10 12 -12 0 -22 5 -22 10
0 6 -5 10 -11 10 -6 0 -9 -5 -7 -12z"/>
<path d="M3625 2030 c3 -5 8 -10 11 -10 2 0 4 5 4 10 0 6 -5 10 -11 10 -5 0
-7 -4 -4 -10z"/>
<path d="M380 2016 c-6 -9 -10 -21 -8 -28 3 -8 9 -4 17 10 15 28 9 39 -9 18z"/>
<path d="M3350 2021 c0 -5 -10 -12 -22 -14 -15 -3 -9 -5 14 -6 29 -1 36 2 32
14 -7 16 -24 21 -24 6z"/>
<path d="M675 2000 c3 -5 8 -10 11 -10 2 0 4 5 4 10 0 6 -5 10 -11 10 -5 0 -7
-4 -4 -10z"/>
<path d="M3570 2000 c-9 -6 -10 -10 -3 -10 6 0 15 5 18 10 8 12 4 12 -15 0z"/>
<path d="M195 1990 c27 -12 43 -12 25 0 -8 5 -22 9 -30 9 -10 0 -8 -3 5 -9z"/>
<path d="M3600 1970 c0 -9 39 -25 45 -18 2 2 -7 8 -21 15 -13 6 -24 7 -24 3z"/>
<path d="M650 1959 c0 -9 14 -22 33 -30 17 -7 34 -16 37 -21 7 -10 50 2 50 14
0 5 -8 7 -19 3 -23 -7 -70 10 -87 33 -12 15 -13 15 -14 1z"/>
<path d="M785 1900 c-3 -5 -1 -10 4 -10 6 0 11 5 11 10 0 6 -2 10 -4 10 -3 0
-8 -4 -11 -10z"/>
<path d="M3450 1770 c0 -5 5 -10 10 -10 6 0 10 5 10 10 0 6 -4 10 -10 10 -5 0
-10 -4 -10 -10z"/>
<path d="M4291 930 c-1 -8 -5 -26 -7 -40 -6 -31 -27 -80 -34 -80 -8 0 -6 -47
1 -55 4 -3 17 7 28 24 18 26 21 41 18 98 -2 37 -4 61 -6 53z"/>
<path d="M4285 720 c3 -5 8 -10 11 -10 2 0 4 5 4 10 0 6 -5 10 -11 10 -5 0 -7
-4 -4 -10z"/>
</g>
</svg>
